# xmcd CD database file
#
# Track frame offsets:
#	182
#	41095
#	75295
#	99495
#	136582
#	172720
#	237995
#
# Disc length: 3935 seconds
#
# Revision: 0
# Processed by: cddbd v1.5.1PL0 Copyright (c) Steve Scherf et al.
# Submitted via: CDex 1.51
#
DISCID=430f5d07
DTITLE=Karlheinz Miklin and Quinteto Argentina - Malambo Blue
DYEAR=1988
DGENRE=Jazz
TTITLE0=Mambon
TTITLE1=Una Manana
TTITLE2=Von Stuck's Dance
TTITLE3=Cereza
TTITLE4=Como Un Loco Tamboril
TTITLE5=Malambo Blue
TTITLE6=La Llave Secreta
EXTD=YEAR: 1988
EXTT0=
EXTT1=
EXTT2=
EXTT3=
EXTT4=
EXTT5=
EXTT6=
PLAYORDER=
